<svg class="main-svg" xmlns="http://www.w3.org/2000/svg" xmlns:xlink="http://www.w3.org/1999/xlink" width="1134" height="1440" style="" viewBox="0 0 630 800"><rect x="0" y="0" width="630" height="800" style="fill: rgb(255, 255, 255); fill-opacity: 1;"/><defs id="defs-cba0c7"><g class="clips"><clipPath id="clipcba0c7xyplot" class="plotclip"><rect width="470" height="620"/></clipPath><clipPath class="axesclip" id="clipcba0c7x"><rect x="80" y="0" width="470" height="800"/></clipPath><clipPath class="axesclip" id="clipcba0c7y"><rect x="0" y="100" width="630" height="620"/></clipPath><clipPath class="axesclip" id="clipcba0c7xy"><rect x="80" y="100" width="470" height="620"/></clipPath></g><g class="gradients"/><g class="patterns"/></defs><g class="bglayer"/><g class="layer-below"><g class="imagelayer"/><g class="shapelayer"/></g><g class="cartesianlayer"><g class="subplot xy"><g class="layer-subplot"><g class="shapelayer"/><g class="imagelayer"/></g><g class="minor-gridlayer"><g class="x"/><g class="y"/></g><g class="gridlayer"><g class="x"><path class="xgrid crisp" transform="translate(99.11,0)" d="M0,100v620" style="stroke: rgb(211, 211, 211); stroke-opacity: 1; stroke-width: 1px;"/><path class="xgrid crisp" transform="translate(182.63,0)" d="M0,100v620" style="stroke: rgb(211, 211, 211); stroke-opacity: 1; stroke-width: 1px;"/><path class="xgrid crisp" transform="translate(266.14,0)" d="M0,100v620" style="stroke: rgb(211, 211, 211); stroke-opacity: 1; stroke-width: 1px;"/><path class="xgrid crisp" transform="translate(349.66,0)" d="M0,100v620" style="stroke: rgb(211, 211, 211); stroke-opacity: 1; stroke-width: 1px;"/><path class="xgrid crisp" transform="translate(433.18,0)" d="M0,100v620" style="stroke: rgb(211, 211, 211); stroke-opacity: 1; stroke-width: 1px;"/><path class="xgrid crisp" transform="translate(516.69,0)" d="M0,100v620" style="stroke: rgb(211, 211, 211); stroke-opacity: 1; stroke-width: 1px;"/></g><g class="y"><path class="ygrid crisp" transform="translate(0,596)" d="M80,0h470" style="stroke: rgb(211, 211, 211); stroke-opacity: 1; stroke-width: 1px;"/><path class="ygrid crisp" transform="translate(0,472)" d="M80,0h470" style="stroke: rgb(211, 211, 211); stroke-opacity: 1; stroke-width: 1px;"/><path class="ygrid crisp" transform="translate(0,348)" d="M80,0h470" style="stroke: rgb(211, 211, 211); stroke-opacity: 1; stroke-width: 1px;"/><path class="ygrid crisp" transform="translate(0,224)" d="M80,0h470" style="stroke: rgb(211, 211, 211); stroke-opacity: 1; stroke-width: 1px;"/></g></g><g class="zerolinelayer"><path class="yzl zl crisp" transform="translate(0,720)" d="M80,0h470" style="stroke: rgb(235, 240, 248); stroke-opacity: 1; stroke-width: 2px;"/></g><g class="layer-between"><g class="shapelayer"/><g class="imagelayer"/></g><path class="xlines-below"/><path class="ylines-below"/><g class="overlines-below"/><g class="xaxislayer-below"/><g class="yaxislayer-below"/><g class="overaxes-below"/><g class="overplot"><g class="xy" transform="translate(80,100)" clip-path="url(#clipcba0c7xyplot)"><g class="barlayer mlayer"><g class="trace bars" style="opacity: 1;"><g class="points"><g class="point"><path d="M376.56,620V562.27H383.24V620Z" style="vector-effect: none; opacity: 0.5; stroke-width: 0.5px; fill: rgb(86, 180, 233); fill-opacity: 1; stroke: rgb(255, 255, 255); stroke-opacity: 1;"/></g><g class="point"><path d="M289.7,620V314.67H296.39V620Z" style="vector-effect: none; opacity: 0.5; stroke-width: 0.5px; fill: rgb(86, 180, 233); fill-opacity: 1; stroke: rgb(255, 255, 255); stroke-opacity: 1;"/></g><g class="point"><path d="M413.31,620V128.06H419.99V620Z" style="vector-effect: none; opacity: 0.5; stroke-width: 0.5px; fill: rgb(86, 180, 233); fill-opacity: 1; stroke: rgb(255, 255, 255); stroke-opacity: 1;"/></g><g class="point"><path d="M151.07,620V549.27H157.75V620Z" style="vector-effect: none; opacity: 0.5; stroke-width: 0.5px; fill: rgb(86, 180, 233); fill-opacity: 1; stroke: rgb(255, 255, 255); stroke-opacity: 1;"/></g><g class="point"><path d="M286.36,620V520.13H293.04V620Z" style="vector-effect: none; opacity: 0.5; stroke-width: 0.5px; fill: rgb(86, 180, 233); fill-opacity: 1; stroke: rgb(255, 255, 255); stroke-opacity: 1;"/></g><g class="point"><path d="M293.88,620V538.95H300.56V620Z" style="vector-effect: none; opacity: 0.5; stroke-width: 0.5px; fill: rgb(86, 180, 233); fill-opacity: 1; stroke: rgb(255, 255, 255); stroke-opacity: 1;"/></g><g class="point"><path d="M121.83,620V608.82H128.52V620Z" style="vector-effect: none; opacity: 0.5; stroke-width: 0.5px; fill: rgb(86, 180, 233); fill-opacity: 1; stroke: rgb(255, 255, 255); stroke-opacity: 1;"/></g><g class="point"><path d="M229.57,620V587.49H236.25V620Z" style="vector-effect: none; opacity: 0.5; stroke-width: 0.5px; fill: rgb(86, 180, 233); fill-opacity: 1; stroke: rgb(255, 255, 255); stroke-opacity: 1;"/></g><g class="point"><path d="M113.48,620V424.62H120.16V620Z" style="vector-effect: none; opacity: 0.5; stroke-width: 0.5px; fill: rgb(86, 180, 233); fill-opacity: 1; stroke: rgb(255, 255, 255); stroke-opacity: 1;"/></g><g class="point"><path d="M57.53,620V555.64H64.21V620Z" style="vector-effect: none; opacity: 0.5; stroke-width: 0.5px; fill: rgb(86, 180, 233); fill-opacity: 1; stroke: rgb(255, 255, 255); stroke-opacity: 1;"/></g><g class="point"><path d="M223.73,620V607.73H230.41V620Z" style="vector-effect: none; opacity: 0.5; stroke-width: 0.5px; fill: rgb(86, 180, 233); fill-opacity: 1; stroke: rgb(255, 255, 255); stroke-opacity: 1;"/></g><g class="point"><path d="M440.03,620V344.57H446.72V620Z" style="vector-effect: none; opacity: 0.5; stroke-width: 0.5px; fill: rgb(86, 180, 233); fill-opacity: 1; stroke: rgb(255, 255, 255); stroke-opacity: 1;"/></g><g class="point"><path d="M85.92,620V429.69H92.6V620Z" style="vector-effect: none; opacity: 0.5; stroke-width: 0.5px; fill: rgb(86, 180, 233); fill-opacity: 1; stroke: rgb(255, 255, 255); stroke-opacity: 1;"/></g><g class="point"><path d="M29.97,620V544.4H36.65V620Z" style="vector-effect: none; opacity: 0.5; stroke-width: 0.5px; fill: rgb(86, 180, 233); fill-opacity: 1; stroke: rgb(255, 255, 255); stroke-opacity: 1;"/></g></g></g><g class="trace bars" style="opacity: 1;"><g class="points"><g class="point"><path d="M359.02,620V547.33H365.7V620Z" style="vector-effect: none; opacity: 0.5; stroke-width: 0.5px; fill: rgb(230, 159, 0); fill-opacity: 1; stroke: rgb(255, 255, 255); stroke-opacity: 1;"/></g><g class="point"><path d="M23.28,620V589.19H29.97V620Z" style="vector-effect: none; opacity: 0.5; stroke-width: 0.5px; fill: rgb(230, 159, 0); fill-opacity: 1; stroke: rgb(255, 255, 255); stroke-opacity: 1;"/></g><g class="point"><path d="M338.98,620V300.43H345.66V620Z" style="vector-effect: none; opacity: 0.5; stroke-width: 0.5px; fill: rgb(230, 159, 0); fill-opacity: 1; stroke: rgb(255, 255, 255); stroke-opacity: 1;"/></g><g class="point"><path d="M275.51,620V275.87H282.19V620Z" style="vector-effect: none; opacity: 0.5; stroke-width: 0.5px; fill: rgb(230, 159, 0); fill-opacity: 1; stroke: rgb(255, 255, 255); stroke-opacity: 1;"/></g><g class="point"><path d="M311.42,620V578.5H318.1V620Z" style="vector-effect: none; opacity: 0.5; stroke-width: 0.5px; fill: rgb(230, 159, 0); fill-opacity: 1; stroke: rgb(255, 255, 255); stroke-opacity: 1;"/></g><g class="point"><path d="M326.45,620V572.27H333.13V620Z" style="vector-effect: none; opacity: 0.5; stroke-width: 0.5px; fill: rgb(230, 159, 0); fill-opacity: 1; stroke: rgb(255, 255, 255); stroke-opacity: 1;"/></g><g class="point"><path d="M340.65,620V213.24H347.33V620Z" style="vector-effect: none; opacity: 0.5; stroke-width: 0.5px; fill: rgb(230, 159, 0); fill-opacity: 1; stroke: rgb(255, 255, 255); stroke-opacity: 1;"/></g><g class="point"><path d="M37.48,620V579.87H44.16V620Z" style="vector-effect: none; opacity: 0.5; stroke-width: 0.5px; fill: rgb(230, 159, 0); fill-opacity: 1; stroke: rgb(255, 255, 255); stroke-opacity: 1;"/></g><g class="point"><path d="M185.31,620V581.51H191.99V620Z" style="vector-effect: none; opacity: 0.5; stroke-width: 0.5px; fill: rgb(230, 159, 0); fill-opacity: 1; stroke: rgb(255, 255, 255); stroke-opacity: 1;"/></g><g class="point"><path d="M201.18,620V506.67H207.86V620Z" style="vector-effect: none; opacity: 0.5; stroke-width: 0.5px; fill: rgb(230, 159, 0); fill-opacity: 1; stroke: rgb(255, 255, 255); stroke-opacity: 1;"/></g><g class="point"><path d="M172.78,620V608.32H179.46V620Z" style="vector-effect: none; opacity: 0.5; stroke-width: 0.5px; fill: rgb(230, 159, 0); fill-opacity: 1; stroke: rgb(255, 255, 255); stroke-opacity: 1;"/></g><g class="point"><path d="M94.27,620V606.69H100.96V620Z" style="vector-effect: none; opacity: 0.5; stroke-width: 0.5px; fill: rgb(230, 159, 0); fill-opacity: 1; stroke: rgb(255, 255, 255); stroke-opacity: 1;"/></g><g class="point"><path d="M91.77,620V598.6H98.45V620Z" style="vector-effect: none; opacity: 0.5; stroke-width: 0.5px; fill: rgb(230, 159, 0); fill-opacity: 1; stroke: rgb(255, 255, 255); stroke-opacity: 1;"/></g><g class="point"><path d="M154.41,620V549.47H161.09V620Z" style="vector-effect: none; opacity: 0.5; stroke-width: 0.5px; fill: rgb(230, 159, 0); fill-opacity: 1; stroke: rgb(255, 255, 255); stroke-opacity: 1;"/></g><g class="point"><path d="M60.03,620V596.41H66.71V620Z" style="vector-effect: none; opacity: 0.5; stroke-width: 0.5px; fill: rgb(230, 159, 0); fill-opacity: 1; stroke: rgb(255, 255, 255); stroke-opacity: 1;"/></g><g class="point"><path d="M112.65,620V597.46H119.33V620Z" style="vector-effect: none; opacity: 0.5; stroke-width: 0.5px; fill: rgb(230, 159, 0); fill-opacity: 1; stroke: rgb(255, 255, 255); stroke-opacity: 1;"/></g></g></g></g><g class="scatterlayer mlayer"><g class="trace scatter trace499808" style="stroke-miterlimit: 2; opacity: 1;"><g class="fills"/><g class="errorbars"/><g class="lines"/><g class="points"><path class="point" transform="translate(379.9,515.47)" d="M2.5,0A2.5,2.5 0 1,1 0,-2.5A2.5,2.5 0 0,1 2.5,0Z" style="opacity: 1; stroke-width: 0px; fill: rgb(230, 159, 0); fill-opacity: 1;"/><path class="point" transform="translate(293.04,591.6)" d="M2.5,0A2.5,2.5 0 1,1 0,-2.5A2.5,2.5 0 0,1 2.5,0Z" style="opacity: 1; stroke-width: 0px; fill: rgb(230, 159, 0); fill-opacity: 1;"/><path class="point" transform="translate(416.65,562.16)" d="M2.5,0A2.5,2.5 0 1,1 0,-2.5A2.5,2.5 0 0,1 2.5,0Z" style="opacity: 1; stroke-width: 0px; fill: rgb(230, 159, 0); fill-opacity: 1;"/><path class="point" transform="translate(154.41,531.97)" d="M2.5,0A2.5,2.5 0 1,1 0,-2.5A2.5,2.5 0 0,1 2.5,0Z" style="opacity: 1; stroke-width: 0px; fill: rgb(230, 159, 0); fill-opacity: 1;"/><path class="point" transform="translate(289.7,545.2)" d="M2.5,0A2.5,2.5 0 1,1 0,-2.5A2.5,2.5 0 0,1 2.5,0Z" style="opacity: 1; stroke-width: 0px; fill: rgb(230, 159, 0); fill-opacity: 1;"/><path class="point" transform="translate(297.22,488.44)" d="M2.5,0A2.5,2.5 0 1,1 0,-2.5A2.5,2.5 0 0,1 2.5,0Z" style="opacity: 1; stroke-width: 0px; fill: rgb(230, 159, 0); fill-opacity: 1;"/><path class="point" transform="translate(125.18,601.71)" d="M2.5,0A2.5,2.5 0 1,1 0,-2.5A2.5,2.5 0 0,1 2.5,0Z" style="opacity: 1; stroke-width: 0px; fill: rgb(230, 159, 0); fill-opacity: 1;"/><path class="point" transform="translate(232.91,552.24)" d="M2.5,0A2.5,2.5 0 1,1 0,-2.5A2.5,2.5 0 0,1 2.5,0Z" style="opacity: 1; stroke-width: 0px; fill: rgb(230, 159, 0); fill-opacity: 1;"/><path class="point" transform="translate(116.82,576.41)" d="M2.5,0A2.5,2.5 0 1,1 0,-2.5A2.5,2.5 0 0,1 2.5,0Z" style="opacity: 1; stroke-width: 0px; fill: rgb(230, 159, 0); fill-opacity: 1;"/><path class="point" transform="translate(60.87,615.95)" d="M2.5,0A2.5,2.5 0 1,1 0,-2.5A2.5,2.5 0 0,1 2.5,0Z" style="opacity: 1; stroke-width: 0px; fill: rgb(230, 159, 0); fill-opacity: 1;"/><path class="point" transform="translate(227.07,604.48)" d="M2.5,0A2.5,2.5 0 1,1 0,-2.5A2.5,2.5 0 0,1 2.5,0Z" style="opacity: 1; stroke-width: 0px; fill: rgb(230, 159, 0); fill-opacity: 1;"/><path class="point" transform="translate(443.38,608.27)" d="M2.5,0A2.5,2.5 0 1,1 0,-2.5A2.5,2.5 0 0,1 2.5,0Z" style="opacity: 1; stroke-width: 0px; fill: rgb(230, 159, 0); fill-opacity: 1;"/><path class="point" transform="translate(89.26,502.75)" d="M2.5,0A2.5,2.5 0 1,1 0,-2.5A2.5,2.5 0 0,1 2.5,0Z" style="opacity: 1; stroke-width: 0px; fill: rgb(230, 159, 0); fill-opacity: 1;"/><path class="point" transform="translate(33.31,569.64)" d="M2.5,0A2.5,2.5 0 1,1 0,-2.5A2.5,2.5 0 0,1 2.5,0Z" style="opacity: 1; stroke-width: 0px; fill: rgb(230, 159, 0); fill-opacity: 1;"/></g><g class="text"/></g><g class="trace scatter trace63c8ed" style="stroke-miterlimit: 2; opacity: 1;"><g class="fills"/><g class="errorbars"/><g class="lines"/><g class="points"><path class="point" transform="translate(362.36,448.38)" d="M2.5,0A2.5,2.5 0 1,1 0,-2.5A2.5,2.5 0 0,1 2.5,0Z" style="opacity: 1; stroke-width: 0px; fill: rgb(86, 180, 233); fill-opacity: 1;"/><path class="point" transform="translate(26.62,539.46)" d="M2.5,0A2.5,2.5 0 1,1 0,-2.5A2.5,2.5 0 0,1 2.5,0Z" style="opacity: 1; stroke-width: 0px; fill: rgb(86, 180, 233); fill-opacity: 1;"/><path class="point" transform="translate(342.32,473.69)" d="M2.5,0A2.5,2.5 0 1,1 0,-2.5A2.5,2.5 0 0,1 2.5,0Z" style="opacity: 1; stroke-width: 0px; fill: rgb(86, 180, 233); fill-opacity: 1;"/><path class="point" transform="translate(278.85,515.05)" d="M2.5,0A2.5,2.5 0 1,1 0,-2.5A2.5,2.5 0 0,1 2.5,0Z" style="opacity: 1; stroke-width: 0px; fill: rgb(86, 180, 233); fill-opacity: 1;"/><path class="point" transform="translate(314.76,496.1)" d="M2.5,0A2.5,2.5 0 1,1 0,-2.5A2.5,2.5 0 0,1 2.5,0Z" style="opacity: 1; stroke-width: 0px; fill: rgb(86, 180, 233); fill-opacity: 1;"/><path class="point" transform="translate(329.79,486.15)" d="M2.5,0A2.5,2.5 0 1,1 0,-2.5A2.5,2.5 0 0,1 2.5,0Z" style="opacity: 1; stroke-width: 0px; fill: rgb(86, 180, 233); fill-opacity: 1;"/><path class="point" transform="translate(343.99,442.3)" d="M2.5,0A2.5,2.5 0 1,1 0,-2.5A2.5,2.5 0 0,1 2.5,0Z" style="opacity: 1; stroke-width: 0px; fill: rgb(86, 180, 233); fill-opacity: 1;"/><path class="point" transform="translate(40.82,517.51)" d="M2.5,0A2.5,2.5 0 1,1 0,-2.5A2.5,2.5 0 0,1 2.5,0Z" style="opacity: 1; stroke-width: 0px; fill: rgb(86, 180, 233); fill-opacity: 1;"/><path class="point" transform="translate(188.65,611.34)" d="M2.5,0A2.5,2.5 0 1,1 0,-2.5A2.5,2.5 0 0,1 2.5,0Z" style="opacity: 1; stroke-width: 0px; fill: rgb(86, 180, 233); fill-opacity: 1;"/><path class="point" transform="translate(204.52,457.66)" d="M2.5,0A2.5,2.5 0 1,1 0,-2.5A2.5,2.5 0 0,1 2.5,0Z" style="opacity: 1; stroke-width: 0px; fill: rgb(86, 180, 233); fill-opacity: 1;"/><path class="point" transform="translate(176.12,588.02)" d="M2.5,0A2.5,2.5 0 1,1 0,-2.5A2.5,2.5 0 0,1 2.5,0Z" style="opacity: 1; stroke-width: 0px; fill: rgb(86, 180, 233); fill-opacity: 1;"/><path class="point" transform="translate(97.61,611.92)" d="M2.5,0A2.5,2.5 0 1,1 0,-2.5A2.5,2.5 0 0,1 2.5,0Z" style="opacity: 1; stroke-width: 0px; fill: rgb(86, 180, 233); fill-opacity: 1;"/><path class="point" transform="translate(95.11,584.43)" d="M2.5,0A2.5,2.5 0 1,1 0,-2.5A2.5,2.5 0 0,1 2.5,0Z" style="opacity: 1; stroke-width: 0px; fill: rgb(86, 180, 233); fill-opacity: 1;"/><path class="point" transform="translate(157.75,522.08)" d="M2.5,0A2.5,2.5 0 1,1 0,-2.5A2.5,2.5 0 0,1 2.5,0Z" style="opacity: 1; stroke-width: 0px; fill: rgb(86, 180, 233); fill-opacity: 1;"/><path class="point" transform="translate(63.37,605.12)" d="M2.5,0A2.5,2.5 0 1,1 0,-2.5A2.5,2.5 0 0,1 2.5,0Z" style="opacity: 1; stroke-width: 0px; fill: rgb(86, 180, 233); fill-opacity: 1;"/><path class="point" transform="translate(115.99,570.76)" d="M2.5,0A2.5,2.5 0 1,1 0,-2.5A2.5,2.5 0 0,1 2.5,0Z" style="opacity: 1; stroke-width: 0px; fill: rgb(86, 180, 233); fill-opacity: 1;"/></g><g class="text"/></g></g></g></g><path class="xlines-above crisp" d="M0,0" style="fill: none;"/><path class="ylines-above crisp" d="M0,0" style="fill: none;"/><g class="overlines-above"/><g class="xaxislayer-above"><g class="xtick"><text text-anchor="middle" x="0" y="734" transform="translate(99.11,0)" style="font-family: Arial; font-size: 13px; fill: rgb(127, 127, 127); fill-opacity: 1; white-space: pre; opacity: 1;">0</text></g><g class="xtick"><text text-anchor="middle" x="0" y="734" style="font-family: Arial; font-size: 13px; fill: rgb(127, 127, 127); fill-opacity: 1; white-space: pre; opacity: 1;" transform="translate(182.63,0)">100</text></g><g class="xtick"><text text-anchor="middle" x="0" y="734" style="font-family: Arial; font-size: 13px; fill: rgb(127, 127, 127); fill-opacity: 1; white-space: pre; opacity: 1;" transform="translate(266.14,0)">200</text></g><g class="xtick"><text text-anchor="middle" x="0" y="734" style="font-family: Arial; font-size: 13px; fill: rgb(127, 127, 127); fill-opacity: 1; white-space: pre; opacity: 1;" transform="translate(349.66,0)">300</text></g><g class="xtick"><text text-anchor="middle" x="0" y="734" style="font-family: Arial; font-size: 13px; fill: rgb(127, 127, 127); fill-opacity: 1; white-space: pre; opacity: 1;" transform="translate(433.18,0)">400</text></g><g class="xtick"><text text-anchor="middle" x="0" y="734" style="font-family: Arial; font-size: 13px; fill: rgb(127, 127, 127); fill-opacity: 1; white-space: pre; opacity: 1;" transform="translate(516.69,0)">500</text></g></g><g class="yaxislayer-above"><g class="ytick"><text text-anchor="end" x="79" y="4.55" transform="translate(0,720)" style="font-family: Arial; font-size: 13px; fill: rgb(127, 127, 127); fill-opacity: 1; white-space: pre; opacity: 1;">0</text></g><g class="ytick"><text text-anchor="end" x="79" y="4.55" style="font-family: Arial; font-size: 13px; fill: rgb(127, 127, 127); fill-opacity: 1; white-space: pre; opacity: 1;" transform="translate(0,596)">0.2</text></g><g class="ytick"><text text-anchor="end" x="79" y="4.55" style="font-family: Arial; font-size: 13px; fill: rgb(127, 127, 127); fill-opacity: 1; white-space: pre; opacity: 1;" transform="translate(0,472)">0.4</text></g><g class="ytick"><text text-anchor="end" x="79" y="4.55" style="font-family: Arial; font-size: 13px; fill: rgb(127, 127, 127); fill-opacity: 1; white-space: pre; opacity: 1;" transform="translate(0,348)">0.6</text></g><g class="ytick"><text text-anchor="end" x="79" y="4.55" style="font-family: Arial; font-size: 13px; fill: rgb(127, 127, 127); fill-opacity: 1; white-space: pre; opacity: 1;" transform="translate(0,224)">0.8</text></g><g class="ytick"><text text-anchor="end" x="79" y="4.55" style="font-family: Arial; font-size: 13px; fill: rgb(127, 127, 127); fill-opacity: 1; white-space: pre; opacity: 1;" transform="translate(0,100)">1</text></g></g><g class="overaxes-above"/></g></g><g class="polarlayer"/><g class="smithlayer"/><g class="ternarylayer"/><g class="geolayer"/><g class="funnelarealayer"/><g class="pielayer"/><g class="iciclelayer"/><g class="treemaplayer"/><g class="sunburstlayer"/><g class="glimages"/><defs id="topdefs-cba0c7"><g class="clips"/><clipPath id="legendcba0c7"><rect width="384" height="30" x="0" y="0"/></clipPath></defs><g class="layer-above"><g class="imagelayer"/><g class="shapelayer"/></g><g class="infolayer"><g class="legend" pointer-events="all" transform="translate(166,37.99999999999994)"><rect class="bg" shape-rendering="crispEdges" style="stroke: rgb(68, 68, 68); stroke-opacity: 1; fill: rgb(255, 255, 255); fill-opacity: 1; stroke-width: 0px;" width="384" height="30" x="0" y="0"/><g class="scrollbox" transform="" clip-path="url(#legendcba0c7)"><g class="groups"><g class="traces" transform="translate(0,14.950000000000001)" style="opacity: 1;"><text class="legendtext" text-anchor="start" x="40" y="5.07" style="font-family: Arial; font-size: 13px; fill: rgb(127, 127, 127); fill-opacity: 1; white-space: pre;">Chosen: il</text><g class="layers" style="opacity: 1;"><g class="legendfill"/><g class="legendlines"/><g class="legendsymbols"><g class="legendpoints"><path class="scatterpts" transform="translate(20,0)" d="M2.5,0A2.5,2.5 0 1,1 0,-2.5A2.5,2.5 0 0,1 2.5,0Z" style="opacity: 1; stroke-width: 0px; fill: rgb(230, 159, 0); fill-opacity: 1;"/></g></g></g><rect class="legendtoggle" x="0" y="-9.950000000000001" width="100.421875" height="19.900000000000002" style="fill: rgb(0, 0, 0); fill-opacity: 0;"/></g><g class="traces" transform="translate(102.921875,14.950000000000001)" style="opacity: 1;"><text class="legendtext" text-anchor="start" x="40" y="5.07" style="font-family: Arial; font-size: 13px; fill: rgb(127, 127, 127); fill-opacity: 1; white-space: pre;">Alt: elle</text><g class="layers" style="opacity: 1;"><g class="legendfill"/><g class="legendlines"/><g class="legendsymbols"><g class="legendpoints"><path class="legendundefined" d="M6,6H-6V-6H6Z" transform="translate(20,0)" style="stroke-width: 0.5px; fill: rgb(86, 180, 233); fill-opacity: 1; stroke: rgb(255, 255, 255); stroke-opacity: 1;"/></g></g></g><rect class="legendtoggle" x="0" y="-9.950000000000001" width="86.140625" height="19.900000000000002" style="fill: rgb(0, 0, 0); fill-opacity: 0;"/></g><g class="traces" transform="translate(191.5625,14.950000000000001)" style="opacity: 1;"><text class="legendtext" text-anchor="start" x="40" y="5.07" style="font-family: Arial; font-size: 13px; fill: rgb(127, 127, 127); fill-opacity: 1; white-space: pre;">Chosen: elle</text><g class="layers" style="opacity: 1;"><g class="legendfill"/><g class="legendlines"/><g class="legendsymbols"><g class="legendpoints"><path class="scatterpts" transform="translate(20,0)" d="M2.5,0A2.5,2.5 0 1,1 0,-2.5A2.5,2.5 0 0,1 2.5,0Z" style="opacity: 1; stroke-width: 0px; fill: rgb(86, 180, 233); fill-opacity: 1;"/></g></g></g><rect class="legendtoggle" x="0" y="-9.950000000000001" width="114.78125" height="19.900000000000002" style="fill: rgb(0, 0, 0); fill-opacity: 0;"/></g><g class="traces" transform="translate(308.84375,14.950000000000001)" style="opacity: 1;"><text class="legendtext" text-anchor="start" x="40" y="5.07" style="font-family: Arial; font-size: 13px; fill: rgb(127, 127, 127); fill-opacity: 1; white-space: pre;">Alt: il</text><g class="layers" style="opacity: 1;"><g class="legendfill"/><g class="legendlines"/><g class="legendsymbols"><g class="legendpoints"><path class="legendundefined" d="M6,6H-6V-6H6Z" transform="translate(20,0)" style="stroke-width: 0.5px; fill: rgb(230, 159, 0); fill-opacity: 1; stroke: rgb(255, 255, 255); stroke-opacity: 1;"/></g></g></g><rect class="legendtoggle" x="0" y="-9.950000000000001" width="71.796875" height="19.900000000000002" style="fill: rgb(0, 0, 0); fill-opacity: 0;"/></g></g></g><rect class="scrollbar" rx="20" ry="3" width="0" height="0" style="fill: rgb(128, 139, 164); fill-opacity: 1;" x="0" y="0"/></g><g class="g-gtitle"><text class="gtitle" x="535.5" y="20" text-anchor="end" dy="0.7em" style="opacity: 1; font-family: Arial; font-size: 18px; fill: rgb(127, 127, 127); fill-opacity: 1; white-space: pre;">Selection probability: "il" and "elle", top_k 30, threshold 0.3333</text></g><g class="g-xtitle"><text class="xtitle" x="315" y="762.7" text-anchor="middle" style="opacity: 1; font-family: Arial; font-size: 16px; fill: rgb(127, 127, 127); fill-opacity: 1; white-space: pre;">Step</text></g><g class="g-ytitle"><text class="ytitle" transform="rotate(-90,40.821875,410)" x="40.821875" y="410" text-anchor="middle" style="opacity: 1; font-family: Arial; font-size: 16px; fill: rgb(127, 127, 127); fill-opacity: 1; white-space: pre;">Probability</text></g><g class="annotation" data-index="0" style="opacity: 1;"><g class="annotation-text-g" transform="rotate(0,315,89.5)"><g class="cursor-pointer" transform="translate(263,79)"><rect class="bg" x="0.5" y="0.5" width="103" height="20" style="stroke-width: 1px; stroke: rgb(0, 0, 0); stroke-opacity: 0; fill: rgb(0, 0, 0); fill-opacity: 0;"/><text class="annotation-text" text-anchor="middle" x="51.796875" y="16" style="font-family: Arial; font-size: 16px; fill: rgb(127, 127, 127); fill-opacity: 1; white-space: pre;"><tspan style="font-weight:bold">Llama-3.2-3B</tspan></text></g></g></g></g></svg>