<svg class="main-svg" xmlns="http://www.w3.org/2000/svg" xmlns:xlink="http://www.w3.org/1999/xlink" width="2880" height="1440" style="" viewBox="0 0 1600 800"><rect x="0" y="0" width="1600" height="800" style="fill: rgb(255, 255, 255); fill-opacity: 1;"/><defs id="defs-d6c43f"><g class="clips"><clipPath id="clipd6c43fxyplot" class="plotclip"><rect width="416.00000000000006" height="620"/></clipPath><clipPath id="clipd6c43fx2y2plot" class="plotclip"><rect width="416.00000000000006" height="620"/></clipPath><clipPath id="clipd6c43fx3y3plot" class="plotclip"><rect width="415.99999999999994" height="620"/></clipPath><clipPath class="axesclip" id="clipd6c43fx"><rect x="80" y="0" width="416.00000000000006" height="800"/></clipPath><clipPath class="axesclip" id="clipd6c43fy"><rect x="0" y="100" width="1600" height="620"/></clipPath><clipPath class="axesclip" id="clipd6c43fxy"><rect x="80" y="100" width="416.00000000000006" height="620"/></clipPath><clipPath class="axesclip" id="clipd6c43fy2"><rect x="0" y="100" width="1600" height="620"/></clipPath><clipPath class="axesclip" id="clipd6c43fxy2"><rect x="80" y="100" width="416.00000000000006" height="620"/></clipPath><clipPath class="axesclip" id="clipd6c43fy3"><rect x="0" y="100" width="1600" height="620"/></clipPath><clipPath class="axesclip" id="clipd6c43fxy3"><rect x="80" y="100" width="416.00000000000006" height="620"/></clipPath><clipPath class="axesclip" id="clipd6c43fx2"><rect x="592" y="0" width="416.00000000000006" height="800"/></clipPath><clipPath class="axesclip" id="clipd6c43fx2y"><rect x="592" y="100" width="416.00000000000006" height="620"/></clipPath><clipPath class="axesclip" id="clipd6c43fx2y2"><rect x="592" y="100" width="416.00000000000006" height="620"/></clipPath><clipPath class="axesclip" id="clipd6c43fx2y3"><rect x="592" y="100" width="416.00000000000006" height="620"/></clipPath><clipPath class="axesclip" id="clipd6c43fx3"><rect x="1104" y="0" width="415.99999999999994" height="800"/></clipPath><clipPath class="axesclip" id="clipd6c43fx3y"><rect x="1104" y="100" width="415.99999999999994" height="620"/></clipPath><clipPath class="axesclip" id="clipd6c43fx3y2"><rect x="1104" y="100" width="415.99999999999994" height="620"/></clipPath><clipPath class="axesclip" id="clipd6c43fx3y3"><rect x="1104" y="100" width="415.99999999999994" height="620"/></clipPath></g><g class="gradients"/><g class="patterns"/></defs><g class="bglayer"/><g class="layer-below"><g class="imagelayer"/><g class="shapelayer"/></g><g class="cartesianlayer"><g class="subplot xy"><g class="layer-subplot"><g class="shapelayer"/><g class="imagelayer"/></g><g class="minor-gridlayer"><g class="x"/><g class="y"/></g><g class="gridlayer"><g class="x"><path class="xgrid crisp" transform="translate(144.12,0)" d="M0,100v620" style="stroke: rgb(211, 211, 211); stroke-opacity: 1; stroke-width: 1px;"/><path class="xgrid crisp" transform="translate(224.5,0)" d="M0,100v620" style="stroke: rgb(211, 211, 211); stroke-opacity: 1; stroke-width: 1px;"/><path class="xgrid crisp" transform="translate(304.88,0)" d="M0,100v620" style="stroke: rgb(211, 211, 211); stroke-opacity: 1; stroke-width: 1px;"/><path class="xgrid crisp" transform="translate(385.26,0)" d="M0,100v620" style="stroke: rgb(211, 211, 211); stroke-opacity: 1; stroke-width: 1px;"/><path class="xgrid crisp" transform="translate(465.64,0)" d="M0,100v620" style="stroke: rgb(211, 211, 211); stroke-opacity: 1; stroke-width: 1px;"/></g><g class="y"><path class="ygrid crisp" transform="translate(0,697.5)" d="M80,0h416.00000000000006" style="stroke: rgb(211, 211, 211); stroke-opacity: 1; stroke-width: 1px;"/><path class="ygrid crisp" transform="translate(0,611.04)" d="M80,0h416.00000000000006" style="stroke: rgb(211, 211, 211); stroke-opacity: 1; stroke-width: 1px;"/><path class="ygrid crisp" transform="translate(0,524.5699999999999)" d="M80,0h416.00000000000006" style="stroke: rgb(211, 211, 211); stroke-opacity: 1; stroke-width: 1px;"/><path class="ygrid crisp" transform="translate(0,438.11)" d="M80,0h416.00000000000006" style="stroke: rgb(211, 211, 211); stroke-opacity: 1; stroke-width: 1px;"/><path class="ygrid crisp" transform="translate(0,351.65)" d="M80,0h416.00000000000006" style="stroke: rgb(211, 211, 211); stroke-opacity: 1; stroke-width: 1px;"/><path class="ygrid crisp" transform="translate(0,265.19)" d="M80,0h416.00000000000006" style="stroke: rgb(211, 211, 211); stroke-opacity: 1; stroke-width: 1px;"/><path class="ygrid crisp" transform="translate(0,178.73000000000002)" d="M80,0h416.00000000000006" style="stroke: rgb(211, 211, 211); stroke-opacity: 1; stroke-width: 1px;"/></g></g><g class="zerolinelayer"/><g class="layer-between"><g class="shapelayer"/><g class="imagelayer"/></g><path class="xlines-below"/><path class="ylines-below"/><g class="overlines-below"/><g class="xaxislayer-below"/><g class="yaxislayer-below"/><g class="overaxes-below"/><g class="overplot"><g class="xy" transform="translate(80,100)" clip-path="url(#clipd6c43fxyplot)"><g class="scatterlayer mlayer"><g class="trace scatter trace871fb6" style="stroke-miterlimit: 2; opacity: 1;"><g class="fills"/><g class="errorbars"/><g class="lines"/><g class="points"><path class="point plotly-customdata" transform="translate(247.39,519.98)" d="M2.5,0A2.5,2.5 0 1,1 0,-2.5A2.5,2.5 0 0,1 2.5,0Z" style="opacity: 1; stroke-width: 0px; fill: rgb(230, 159, 0); fill-opacity: 1;"/><path class="point plotly-customdata" transform="translate(85.82,410.26)" d="M2.5,0A2.5,2.5 0 1,1 0,-2.5A2.5,2.5 0 0,1 2.5,0Z" style="opacity: 1; stroke-width: 0px; fill: rgb(230, 159, 0); fill-opacity: 1;"/><path class="point plotly-customdata" transform="translate(23.93,34.13)" d="M2.5,0A2.5,2.5 0 1,1 0,-2.5A2.5,2.5 0 0,1 2.5,0Z" style="opacity: 1; stroke-width: 0px; fill: rgb(230, 159, 0); fill-opacity: 1;"/><path class="point plotly-customdata" transform="translate(183.89,369.17)" d="M2.5,0A2.5,2.5 0 1,1 0,-2.5A2.5,2.5 0 0,1 2.5,0Z" style="opacity: 1; stroke-width: 0px; fill: rgb(230, 159, 0); fill-opacity: 1;"/><path class="point plotly-customdata" transform="translate(392.08,299.36)" d="M2.5,0A2.5,2.5 0 1,1 0,-2.5A2.5,2.5 0 0,1 2.5,0Z" style="opacity: 1; stroke-width: 0px; fill: rgb(230, 159, 0); fill-opacity: 1;"/></g><g class="text"/></g><g class="trace scatter trace744a17" style="stroke-miterlimit: 2; opacity: 1;"><g class="fills"/><g class="errorbars"/><g class="lines"/><g class="points"><path class="point plotly-customdata" transform="translate(146.91,223.54)" d="M2.5,0A2.5,2.5 0 1,1 0,-2.5A2.5,2.5 0 0,1 2.5,0Z" style="opacity: 1; stroke-width: 0px; fill: rgb(86, 180, 233); fill-opacity: 1;"/><path class="point plotly-customdata" transform="translate(134.85,549.63)" d="M2.5,0A2.5,2.5 0 1,1 0,-2.5A2.5,2.5 0 0,1 2.5,0Z" style="opacity: 1; stroke-width: 0px; fill: rgb(86, 180, 233); fill-opacity: 1;"/><path class="point plotly-customdata" transform="translate(59.29,206.25)" d="M2.5,0A2.5,2.5 0 1,1 0,-2.5A2.5,2.5 0 0,1 2.5,0Z" style="opacity: 1; stroke-width: 0px; fill: rgb(86, 180, 233); fill-opacity: 1;"/><path class="point plotly-customdata" transform="translate(56.88,576.11)" d="M2.5,0A2.5,2.5 0 1,1 0,-2.5A2.5,2.5 0 0,1 2.5,0Z" style="opacity: 1; stroke-width: 0px; fill: rgb(86, 180, 233); fill-opacity: 1;"/><path class="point plotly-customdata" transform="translate(26.34,358.71)" d="M2.5,0A2.5,2.5 0 1,1 0,-2.5A2.5,2.5 0 0,1 2.5,0Z" style="opacity: 1; stroke-width: 0px; fill: rgb(86, 180, 233); fill-opacity: 1;"/></g><g class="text"/></g></g></g></g><path class="xlines-above crisp" d="M0,0" style="fill: none;"/><path class="ylines-above crisp" d="M0,0" style="fill: none;"/><g class="overlines-above"/><g class="xaxislayer-above"><g class="xtick"><text text-anchor="middle" x="0" y="735" transform="translate(144.12,0)" style="font-family: Arial; font-size: 14px; fill: rgb(127, 127, 127); fill-opacity: 1; white-space: pre; opacity: 1;">100</text></g><g class="xtick"><text text-anchor="middle" x="0" y="735" style="font-family: Arial; font-size: 14px; fill: rgb(127, 127, 127); fill-opacity: 1; white-space: pre; opacity: 1;" transform="translate(224.5,0)">200</text></g><g class="xtick"><text text-anchor="middle" x="0" y="735" style="font-family: Arial; font-size: 14px; fill: rgb(127, 127, 127); fill-opacity: 1; white-space: pre; opacity: 1;" transform="translate(304.88,0)">300</text></g><g class="xtick"><text text-anchor="middle" x="0" y="735" style="font-family: Arial; font-size: 14px; fill: rgb(127, 127, 127); fill-opacity: 1; white-space: pre; opacity: 1;" transform="translate(385.26,0)">400</text></g><g class="xtick"><text text-anchor="middle" x="0" y="735" style="font-family: Arial; font-size: 14px; fill: rgb(127, 127, 127); fill-opacity: 1; white-space: pre; opacity: 1;" transform="translate(465.64,0)">500</text></g></g><g class="yaxislayer-above"><g class="ytick"><text text-anchor="end" x="79" y="4.8999999999999995" transform="translate(0,697.5)" style="font-family: Arial; font-size: 14px; fill: rgb(127, 127, 127); fill-opacity: 1; white-space: pre; opacity: 1;">4</text></g><g class="ytick"><text text-anchor="end" x="79" y="4.8999999999999995" style="font-family: Arial; font-size: 14px; fill: rgb(127, 127, 127); fill-opacity: 1; white-space: pre; opacity: 1;" transform="translate(0,611.04)">4.5</text></g><g class="ytick"><text text-anchor="end" x="79" y="4.8999999999999995" style="font-family: Arial; font-size: 14px; fill: rgb(127, 127, 127); fill-opacity: 1; white-space: pre; opacity: 1;" transform="translate(0,524.5699999999999)">5</text></g><g class="ytick"><text text-anchor="end" x="79" y="4.8999999999999995" style="font-family: Arial; font-size: 14px; fill: rgb(127, 127, 127); fill-opacity: 1; white-space: pre; opacity: 1;" transform="translate(0,438.11)">5.5</text></g><g class="ytick"><text text-anchor="end" x="79" y="4.8999999999999995" style="font-family: Arial; font-size: 14px; fill: rgb(127, 127, 127); fill-opacity: 1; white-space: pre; opacity: 1;" transform="translate(0,351.65)">6</text></g><g class="ytick"><text text-anchor="end" x="79" y="4.8999999999999995" style="font-family: Arial; font-size: 14px; fill: rgb(127, 127, 127); fill-opacity: 1; white-space: pre; opacity: 1;" transform="translate(0,265.19)">6.5</text></g><g class="ytick"><text text-anchor="end" x="79" y="4.8999999999999995" style="font-family: Arial; font-size: 14px; fill: rgb(127, 127, 127); fill-opacity: 1; white-space: pre; opacity: 1;" transform="translate(0,178.73000000000002)">7</text></g></g><g class="overaxes-above"/></g><g class="subplot x2y2"><g class="layer-subplot"><g class="shapelayer"/><g class="imagelayer"/></g><g class="minor-gridlayer"><g class="x2"/><g class="y2"/></g><g class="gridlayer"><g class="x2"><path class="x2grid crisp" transform="translate(698.99,0)" d="M0,100v620" style="stroke: rgb(211, 211, 211); stroke-opacity: 1; stroke-width: 1px;"/><path class="x2grid crisp" transform="translate(793.39,0)" d="M0,100v620" style="stroke: rgb(211, 211, 211); stroke-opacity: 1; stroke-width: 1px;"/><path class="x2grid crisp" transform="translate(887.79,0)" d="M0,100v620" style="stroke: rgb(211, 211, 211); stroke-opacity: 1; stroke-width: 1px;"/><path class="x2grid crisp" transform="translate(982.19,0)" d="M0,100v620" style="stroke: rgb(211, 211, 211); stroke-opacity: 1; stroke-width: 1px;"/></g><g class="y2"><path class="y2grid crisp" transform="translate(0,697.5)" d="M592,0h416.00000000000006" style="stroke: rgb(211, 211, 211); stroke-opacity: 1; stroke-width: 1px;"/><path class="y2grid crisp" transform="translate(0,611.04)" d="M592,0h416.00000000000006" style="stroke: rgb(211, 211, 211); stroke-opacity: 1; stroke-width: 1px;"/><path class="y2grid crisp" transform="translate(0,524.5699999999999)" d="M592,0h416.00000000000006" style="stroke: rgb(211, 211, 211); stroke-opacity: 1; stroke-width: 1px;"/><path class="y2grid crisp" transform="translate(0,438.11)" d="M592,0h416.00000000000006" style="stroke: rgb(211, 211, 211); stroke-opacity: 1; stroke-width: 1px;"/><path class="y2grid crisp" transform="translate(0,351.65)" d="M592,0h416.00000000000006" style="stroke: rgb(211, 211, 211); stroke-opacity: 1; stroke-width: 1px;"/><path class="y2grid crisp" transform="translate(0,265.19)" d="M592,0h416.00000000000006" style="stroke: rgb(211, 211, 211); stroke-opacity: 1; stroke-width: 1px;"/><path class="y2grid crisp" transform="translate(0,178.73000000000002)" d="M592,0h416.00000000000006" style="stroke: rgb(211, 211, 211); stroke-opacity: 1; stroke-width: 1px;"/></g></g><g class="zerolinelayer"><path class="x2zl zl crisp" transform="translate(604.6,0)" d="M0,100v620" style="stroke: rgb(235, 240, 248); stroke-opacity: 1; stroke-width: 2px;"/></g><g class="layer-between"><g class="shapelayer"/><g class="imagelayer"/></g><path class="xlines-below"/><path class="ylines-below"/><g class="overlines-below"/><g class="xaxislayer-below"/><g class="yaxislayer-below"/><g class="overaxes-below"/><g class="overplot"><g class="x2y2" transform="translate(592,100)" clip-path="url(#clipd6c43fx2y2plot)"><g class="scatterlayer mlayer"><g class="trace scatter trace14a5ee" style="stroke-miterlimit: 2; opacity: 1;"><g class="fills"/><g class="errorbars"/><g class="lines"/><g class="points"><path class="point plotly-customdata" transform="translate(392.08,384.66)" d="M2.5,0A2.5,2.5 0 1,1 0,-2.5A2.5,2.5 0 0,1 2.5,0Z" style="opacity: 1; stroke-width: 0px; fill: rgb(230, 159, 0); fill-opacity: 1;"/><path class="point plotly-customdata" transform="translate(101.33,520.82)" d="M2.5,0A2.5,2.5 0 1,1 0,-2.5A2.5,2.5 0 0,1 2.5,0Z" style="opacity: 1; stroke-width: 0px; fill: rgb(230, 159, 0); fill-opacity: 1;"/><path class="point plotly-customdata" transform="translate(73.01,585.88)" d="M2.5,0A2.5,2.5 0 1,1 0,-2.5A2.5,2.5 0 0,1 2.5,0Z" style="opacity: 1; stroke-width: 0px; fill: rgb(230, 159, 0); fill-opacity: 1;"/><path class="point plotly-customdata" transform="translate(23.93,574.64)" d="M2.5,0A2.5,2.5 0 1,1 0,-2.5A2.5,2.5 0 0,1 2.5,0Z" style="opacity: 1; stroke-width: 0px; fill: rgb(230, 159, 0); fill-opacity: 1;"/><path class="point plotly-customdata" transform="translate(311.84,519.82)" d="M2.5,0A2.5,2.5 0 1,1 0,-2.5A2.5,2.5 0 0,1 2.5,0Z" style="opacity: 1; stroke-width: 0px; fill: rgb(230, 159, 0); fill-opacity: 1;"/><path class="point plotly-customdata" transform="translate(126.82,496.13)" d="M2.5,0A2.5,2.5 0 1,1 0,-2.5A2.5,2.5 0 0,1 2.5,0Z" style="opacity: 1; stroke-width: 0px; fill: rgb(230, 159, 0); fill-opacity: 1;"/></g><g class="text"/></g><g class="trace scatter trace064dae" style="stroke-miterlimit: 2; opacity: 1;"><g class="fills"/><g class="errorbars"/><g class="lines"/><g class="points"><path class="point plotly-customdata" transform="translate(377.92,353.85)" d="M2.5,0A2.5,2.5 0 1,1 0,-2.5A2.5,2.5 0 0,1 2.5,0Z" style="opacity: 1; stroke-width: 0px; fill: rgb(86, 180, 233); fill-opacity: 1;"/><path class="point plotly-customdata" transform="translate(378.86,345.3)" d="M2.5,0A2.5,2.5 0 1,1 0,-2.5A2.5,2.5 0 0,1 2.5,0Z" style="opacity: 1; stroke-width: 0px; fill: rgb(86, 180, 233); fill-opacity: 1;"/><path class="point plotly-customdata" transform="translate(46.58,468.58)" d="M2.5,0A2.5,2.5 0 1,1 0,-2.5A2.5,2.5 0 0,1 2.5,0Z" style="opacity: 1; stroke-width: 0px; fill: rgb(86, 180, 233); fill-opacity: 1;"/></g><g class="text"/></g></g></g></g><path class="xlines-above crisp" d="M0,0" style="fill: none;"/><path class="ylines-above crisp" d="M0,0" style="fill: none;"/><g class="overlines-above"/><g class="xaxislayer-above"><g class="x2tick"><text text-anchor="middle" x="0" y="735" transform="translate(604.6,0)" style="font-family: Arial; font-size: 14px; fill: rgb(127, 127, 127); fill-opacity: 1; white-space: pre; opacity: 1;">0</text></g><g class="x2tick"><text text-anchor="middle" x="0" y="735" style="font-family: Arial; font-size: 14px; fill: rgb(127, 127, 127); fill-opacity: 1; white-space: pre; opacity: 1;" transform="translate(698.99,0)">100</text></g><g class="x2tick"><text text-anchor="middle" x="0" y="735" style="font-family: Arial; font-size: 14px; fill: rgb(127, 127, 127); fill-opacity: 1; white-space: pre; opacity: 1;" transform="translate(793.39,0)">200</text></g><g class="x2tick"><text text-anchor="middle" x="0" y="735" style="font-family: Arial; font-size: 14px; fill: rgb(127, 127, 127); fill-opacity: 1; white-space: pre; opacity: 1;" transform="translate(887.79,0)">300</text></g><g class="x2tick"><text text-anchor="middle" x="0" y="735" style="font-family: Arial; font-size: 14px; fill: rgb(127, 127, 127); fill-opacity: 1; white-space: pre; opacity: 1;" transform="translate(982.19,0)">400</text></g></g><g class="yaxislayer-above"><g class="y2tick"><text text-anchor="end" x="591" y="4.8999999999999995" transform="translate(0,697.5)" style="font-family: Arial; font-size: 14px; fill: rgb(127, 127, 127); fill-opacity: 1; white-space: pre; opacity: 1;">4</text></g><g class="y2tick"><text text-anchor="end" x="591" y="4.8999999999999995" style="font-family: Arial; font-size: 14px; fill: rgb(127, 127, 127); fill-opacity: 1; white-space: pre; opacity: 1;" transform="translate(0,611.04)">4.5</text></g><g class="y2tick"><text text-anchor="end" x="591" y="4.8999999999999995" style="font-family: Arial; font-size: 14px; fill: rgb(127, 127, 127); fill-opacity: 1; white-space: pre; opacity: 1;" transform="translate(0,524.5699999999999)">5</text></g><g class="y2tick"><text text-anchor="end" x="591" y="4.8999999999999995" style="font-family: Arial; font-size: 14px; fill: rgb(127, 127, 127); fill-opacity: 1; white-space: pre; opacity: 1;" transform="translate(0,438.11)">5.5</text></g><g class="y2tick"><text text-anchor="end" x="591" y="4.8999999999999995" style="font-family: Arial; font-size: 14px; fill: rgb(127, 127, 127); fill-opacity: 1; white-space: pre; opacity: 1;" transform="translate(0,351.65)">6</text></g><g class="y2tick"><text text-anchor="end" x="591" y="4.8999999999999995" style="font-family: Arial; font-size: 14px; fill: rgb(127, 127, 127); fill-opacity: 1; white-space: pre; opacity: 1;" transform="translate(0,265.19)">6.5</text></g><g class="y2tick"><text text-anchor="end" x="591" y="4.8999999999999995" style="font-family: Arial; font-size: 14px; fill: rgb(127, 127, 127); fill-opacity: 1; white-space: pre; opacity: 1;" transform="translate(0,178.73000000000002)">7</text></g></g><g class="overaxes-above"/></g><g class="subplot x3y3"><g class="layer-subplot"><g class="shapelayer"/><g class="imagelayer"/></g><g class="minor-gridlayer"><g class="x3"/><g class="y3"/></g><g class="gridlayer"><g class="x3"><path class="x3grid crisp" transform="translate(1208,0)" d="M0,100v620" style="stroke: rgb(211, 211, 211); stroke-opacity: 1; stroke-width: 1px;"/><path class="x3grid crisp" transform="translate(1312,0)" d="M0,100v620" style="stroke: rgb(211, 211, 211); stroke-opacity: 1; stroke-width: 1px;"/><path class="x3grid crisp" transform="translate(1416,0)" d="M0,100v620" style="stroke: rgb(211, 211, 211); stroke-opacity: 1; stroke-width: 1px;"/></g><g class="y3"><path class="y3grid crisp" transform="translate(0,697.5)" d="M1104,0h415.99999999999994" style="stroke: rgb(211, 211, 211); stroke-opacity: 1; stroke-width: 1px;"/><path class="y3grid crisp" transform="translate(0,611.04)" d="M1104,0h415.99999999999994" style="stroke: rgb(211, 211, 211); stroke-opacity: 1; stroke-width: 1px;"/><path class="y3grid crisp" transform="translate(0,524.5699999999999)" d="M1104,0h415.99999999999994" style="stroke: rgb(211, 211, 211); stroke-opacity: 1; stroke-width: 1px;"/><path class="y3grid crisp" transform="translate(0,438.11)" d="M1104,0h415.99999999999994" style="stroke: rgb(211, 211, 211); stroke-opacity: 1; stroke-width: 1px;"/><path class="y3grid crisp" transform="translate(0,351.65)" d="M1104,0h415.99999999999994" style="stroke: rgb(211, 211, 211); stroke-opacity: 1; stroke-width: 1px;"/><path class="y3grid crisp" transform="translate(0,265.19)" d="M1104,0h415.99999999999994" style="stroke: rgb(211, 211, 211); stroke-opacity: 1; stroke-width: 1px;"/><path class="y3grid crisp" transform="translate(0,178.73000000000002)" d="M1104,0h415.99999999999994" style="stroke: rgb(211, 211, 211); stroke-opacity: 1; stroke-width: 1px;"/></g></g><g class="zerolinelayer"/><g class="layer-between"><g class="shapelayer"/><g class="imagelayer"/></g><path class="xlines-below"/><path class="ylines-below"/><g class="overlines-below"/><g class="xaxislayer-below"/><g class="yaxislayer-below"/><g class="overaxes-below"/><g class="overplot"><g class="x3y3" transform="translate(1104,100)" clip-path="url(#clipd6c43fx3y3plot)"><g class="scatterlayer mlayer"><g class="trace scatter tracee5b48a" style="stroke-miterlimit: 2; opacity: 1;"><g class="fills"/><g class="errorbars"/><g class="lines"/><g class="points"><path class="point plotly-customdata" transform="translate(208,562.09)" d="M2.5,0A2.5,2.5 0 1,1 0,-2.5A2.5,2.5 0 0,1 2.5,0Z" style="opacity: 1; stroke-width: 0px; fill: rgb(86, 180, 233); fill-opacity: 1;"/></g><g class="text"/></g></g></g></g><path class="xlines-above crisp" d="M0,0" style="fill: none;"/><path class="ylines-above crisp" d="M0,0" style="fill: none;"/><g class="overlines-above"/><g class="xaxislayer-above"><g class="x3tick"><text text-anchor="middle" x="0" y="735" transform="translate(1104,0)" style="font-family: Arial; font-size: 14px; fill: rgb(127, 127, 127); fill-opacity: 1; white-space: pre; opacity: 1;">250</text></g><g class="x3tick"><text text-anchor="middle" x="0" y="735" style="font-family: Arial; font-size: 14px; fill: rgb(127, 127, 127); fill-opacity: 1; white-space: pre; opacity: 1;" transform="translate(1208,0)">250.5</text></g><g class="x3tick"><text text-anchor="middle" x="0" y="735" style="font-family: Arial; font-size: 14px; fill: rgb(127, 127, 127); fill-opacity: 1; white-space: pre; opacity: 1;" transform="translate(1312,0)">251</text></g><g class="x3tick"><text text-anchor="middle" x="0" y="735" style="font-family: Arial; font-size: 14px; fill: rgb(127, 127, 127); fill-opacity: 1; white-space: pre; opacity: 1;" transform="translate(1416,0)">251.5</text></g><g class="x3tick"><text text-anchor="middle" x="0" y="735" style="font-family: Arial; font-size: 14px; fill: rgb(127, 127, 127); fill-opacity: 1; white-space: pre; opacity: 1;" transform="translate(1520,0)">252</text></g></g><g class="yaxislayer-above"><g class="y3tick"><text text-anchor="end" x="1103" y="4.8999999999999995" transform="translate(0,697.5)" style="font-family: Arial; font-size: 14px; fill: rgb(127, 127, 127); fill-opacity: 1; white-space: pre; opacity: 1;">4</text></g><g class="y3tick"><text text-anchor="end" x="1103" y="4.8999999999999995" style="font-family: Arial; font-size: 14px; fill: rgb(127, 127, 127); fill-opacity: 1; white-space: pre; opacity: 1;" transform="translate(0,611.04)">4.5</text></g><g class="y3tick"><text text-anchor="end" x="1103" y="4.8999999999999995" style="font-family: Arial; font-size: 14px; fill: rgb(127, 127, 127); fill-opacity: 1; white-space: pre; opacity: 1;" transform="translate(0,524.5699999999999)">5</text></g><g class="y3tick"><text text-anchor="end" x="1103" y="4.8999999999999995" style="font-family: Arial; font-size: 14px; fill: rgb(127, 127, 127); fill-opacity: 1; white-space: pre; opacity: 1;" transform="translate(0,438.11)">5.5</text></g><g class="y3tick"><text text-anchor="end" x="1103" y="4.8999999999999995" style="font-family: Arial; font-size: 14px; fill: rgb(127, 127, 127); fill-opacity: 1; white-space: pre; opacity: 1;" transform="translate(0,351.65)">6</text></g><g class="y3tick"><text text-anchor="end" x="1103" y="4.8999999999999995" style="font-family: Arial; font-size: 14px; fill: rgb(127, 127, 127); fill-opacity: 1; white-space: pre; opacity: 1;" transform="translate(0,265.19)">6.5</text></g><g class="y3tick"><text text-anchor="end" x="1103" y="4.8999999999999995" style="font-family: Arial; font-size: 14px; fill: rgb(127, 127, 127); fill-opacity: 1; white-space: pre; opacity: 1;" transform="translate(0,178.73000000000002)">7</text></g></g><g class="overaxes-above"/></g></g><g class="polarlayer"/><g class="smithlayer"/><g class="ternarylayer"/><g class="geolayer"/><g class="funnelarealayer"/><g class="pielayer"/><g class="iciclelayer"/><g class="treemaplayer"/><g class="sunburstlayer"/><g class="glimages"/><defs id="topdefs-d6c43f"><g class="clips"/><clipPath id="legendd6c43f"><rect width="239" height="32" x="0" y="0"/></clipPath></defs><g class="layer-above"><g class="imagelayer"/><g class="shapelayer"/></g><g class="infolayer"><g class="legend" pointer-events="all" transform="translate(1281,37.99999999999994)"><rect class="bg" shape-rendering="crispEdges" style="stroke: rgb(68, 68, 68); stroke-opacity: 1; fill: rgb(255, 255, 255); fill-opacity: 1; stroke-width: 0px;" width="239" height="32" x="0" y="0"/><g class="scrollbox" transform="" clip-path="url(#legendd6c43f)"><g class="groups"><g class="traces" transform="translate(0,15.6)" style="opacity: 1;"><text class="legendtext" text-anchor="start" x="40" y="5.46" style="font-family: Arial; font-size: 14px; fill: rgb(127, 127, 127); fill-opacity: 1; white-space: pre;">Chosen:: il</text><g class="layers" style="opacity: 1;"><g class="legendfill"/><g class="legendlines"/><g class="legendsymbols"><g class="legendpoints"><path class="scatterpts" transform="translate(20,0)" d="M2.5,0A2.5,2.5 0 1,1 0,-2.5A2.5,2.5 0 0,1 2.5,0Z" style="opacity: 1; stroke-width: 0px; fill: rgb(230, 159, 0); fill-opacity: 1;"/></g></g></g><rect class="legendtoggle" x="0" y="-10.6" width="108.65625" height="21.2" style="fill: rgb(0, 0, 0); fill-opacity: 0;"/></g><g class="traces" transform="translate(111.15625,15.6)" style="opacity: 1;"><text class="legendtext" text-anchor="start" x="40" y="5.46" style="font-family: Arial; font-size: 14px; fill: rgb(127, 127, 127); fill-opacity: 1; white-space: pre;">Chosen:: elle</text><g class="layers" style="opacity: 1;"><g class="legendfill"/><g class="legendlines"/><g class="legendsymbols"><g class="legendpoints"><path class="scatterpts" transform="translate(20,0)" d="M2.5,0A2.5,2.5 0 1,1 0,-2.5A2.5,2.5 0 0,1 2.5,0Z" style="opacity: 1; stroke-width: 0px; fill: rgb(86, 180, 233); fill-opacity: 1;"/></g></g></g><rect class="legendtoggle" x="0" y="-10.6" width="124.4375" height="21.2" style="fill: rgb(0, 0, 0); fill-opacity: 0;"/></g></g></g><rect class="scrollbar" rx="20" ry="3" width="0" height="0" style="fill: rgb(128, 139, 164); fill-opacity: 1;" x="0" y="0"/></g><g class="g-gtitle"><text class="gtitle" x="80" y="50" text-anchor="start" dy="0em" style="opacity: 1; font-family: Arial; font-size: 20px; fill: rgb(127, 127, 127); fill-opacity: 1; white-space: pre;">Token selection surprisal "il" and "elle", threshold 4</text></g><g class="g-xtitle"><text class="xtitle" x="288" y="764.4" text-anchor="middle" style="opacity: 1; font-family: Arial; font-size: 17px; fill: rgb(127, 127, 127); fill-opacity: 1; white-space: pre;">Step</text></g><g class="g-x2title"><text class="x2title" x="800" y="764.4" text-anchor="middle" style="opacity: 1; font-family: Arial; font-size: 17px; fill: rgb(127, 127, 127); fill-opacity: 1; white-space: pre;">Step</text></g><g class="g-x3title"><text class="x3title" x="1312" y="764.4" text-anchor="middle" style="opacity: 1; font-family: Arial; font-size: 17px; fill: rgb(127, 127, 127); fill-opacity: 1; white-space: pre;">Step</text></g><g class="g-ytitle"><text class="ytitle" transform="rotate(-90,39.08125,410)" x="39.08125" y="410" text-anchor="middle" style="opacity: 1; font-family: Arial; font-size: 17px; fill: rgb(127, 127, 127); fill-opacity: 1; white-space: pre;">Surprisal</text></g><g class="g-y2title"><text class="y2title" transform="rotate(-90,551.08125,410)" x="551.08125" y="410" text-anchor="middle" style="opacity: 1; font-family: Arial; font-size: 17px; fill: rgb(127, 127, 127); fill-opacity: 1; white-space: pre;">Surprisal</text></g><g class="g-y3title"><text class="y3title" transform="rotate(-90,1063.08125,410)" x="1063.08125" y="410" text-anchor="middle" style="opacity: 1; font-family: Arial; font-size: 17px; fill: rgb(127, 127, 127); fill-opacity: 1; white-space: pre;">Surprisal</text></g><g class="annotation" data-index="0" style="opacity: 1;"><g class="annotation-text-g" transform="rotate(0,288,89.5)"><g class="cursor-pointer" transform="translate(236,79)"><rect class="bg" x="0.5" y="0.5" width="103" height="20" style="stroke-width: 1px; stroke: rgb(0, 0, 0); stroke-opacity: 0; fill: rgb(0, 0, 0); fill-opacity: 0;"/><text class="annotation-text" text-anchor="middle" x="51.796875" y="16" style="font-family: Arial; font-size: 16px; fill: rgb(127, 127, 127); fill-opacity: 1; white-space: pre;"><tspan style="font-weight:bold">Llama-3.2-3B</tspan></text></g></g></g><g class="annotation" data-index="1" style="opacity: 1;"><g class="annotation-text-g" transform="rotate(0,800,89.5)"><g class="cursor-pointer" transform="translate(709,79)"><rect class="bg" x="0.5" y="0.5" width="181" height="20" style="stroke-width: 1px; stroke: rgb(0, 0, 0); stroke-opacity: 0; fill: rgb(0, 0, 0); fill-opacity: 0;"/><text class="annotation-text" text-anchor="middle" x="90.921875" y="16" style="font-family: Arial; font-size: 16px; fill: rgb(127, 127, 127); fill-opacity: 1; white-space: pre;"><tspan style="font-weight:bold">Mistral-7B-Instruct-v0.3</tspan></text></g></g></g><g class="annotation" data-index="2" style="opacity: 1;"><g class="annotation-text-g" transform="rotate(0,1312,89.5)"><g class="cursor-pointer" transform="translate(1232,79)"><rect class="bg" x="0.5" y="0.5" width="159" height="20" style="stroke-width: 1px; stroke: rgb(0, 0, 0); stroke-opacity: 0; fill: rgb(0, 0, 0); fill-opacity: 0;"/><text class="annotation-text" text-anchor="middle" x="79.796875" y="16" style="font-family: Arial; font-size: 16px; fill: rgb(127, 127, 127); fill-opacity: 1; white-space: pre;"><tspan style="font-weight:bold">Qwen2.5-7B-Instruct</tspan></text></g></g></g></g></svg>