<svg class="main-svg" xmlns="http://www.w3.org/2000/svg" xmlns:xlink="http://www.w3.org/1999/xlink" width="1134" height="1440" style="" viewBox="0 0 630 800"><rect x="0" y="0" width="630" height="800" style="fill: rgb(255, 255, 255); fill-opacity: 1;"/><defs id="defs-caf46d"><g class="clips"><clipPath id="clipcaf46dxyplot" class="plotclip"><rect width="470" height="620"/></clipPath><clipPath class="axesclip" id="clipcaf46dx"><rect x="80" y="0" width="470" height="800"/></clipPath><clipPath class="axesclip" id="clipcaf46dy"><rect x="0" y="100" width="630" height="620"/></clipPath><clipPath class="axesclip" id="clipcaf46dxy"><rect x="80" y="100" width="470" height="620"/></clipPath></g><g class="gradients"/><g class="patterns"/></defs><g class="bglayer"/><g class="layer-below"><g class="imagelayer"/><g class="shapelayer"/></g><g class="cartesianlayer"><g class="subplot xy"><g class="layer-subplot"><g class="shapelayer"/><g class="imagelayer"/></g><g class="minor-gridlayer"><g class="x"/><g class="y"/></g><g class="gridlayer"><g class="x"><path class="xgrid crisp" transform="translate(157.01,0)" d="M0,100v620" style="stroke: rgb(211, 211, 211); stroke-opacity: 1; stroke-width: 1px;"/><path class="xgrid crisp" transform="translate(245.27,0)" d="M0,100v620" style="stroke: rgb(211, 211, 211); stroke-opacity: 1; stroke-width: 1px;"/><path class="xgrid crisp" transform="translate(333.53999999999996,0)" d="M0,100v620" style="stroke: rgb(211, 211, 211); stroke-opacity: 1; stroke-width: 1px;"/><path class="xgrid crisp" transform="translate(421.8,0)" d="M0,100v620" style="stroke: rgb(211, 211, 211); stroke-opacity: 1; stroke-width: 1px;"/><path class="xgrid crisp" transform="translate(510.06,0)" d="M0,100v620" style="stroke: rgb(211, 211, 211); stroke-opacity: 1; stroke-width: 1px;"/></g><g class="y"><path class="ygrid crisp" transform="translate(0,700.91)" d="M80,0h470" style="stroke: rgb(211, 211, 211); stroke-opacity: 1; stroke-width: 1px;"/><path class="ygrid crisp" transform="translate(0,614.88)" d="M80,0h470" style="stroke: rgb(211, 211, 211); stroke-opacity: 1; stroke-width: 1px;"/><path class="ygrid crisp" transform="translate(0,528.86)" d="M80,0h470" style="stroke: rgb(211, 211, 211); stroke-opacity: 1; stroke-width: 1px;"/><path class="ygrid crisp" transform="translate(0,442.83)" d="M80,0h470" style="stroke: rgb(211, 211, 211); stroke-opacity: 1; stroke-width: 1px;"/><path class="ygrid crisp" transform="translate(0,356.8)" d="M80,0h470" style="stroke: rgb(211, 211, 211); stroke-opacity: 1; stroke-width: 1px;"/><path class="ygrid crisp" transform="translate(0,270.78)" d="M80,0h470" style="stroke: rgb(211, 211, 211); stroke-opacity: 1; stroke-width: 1px;"/><path class="ygrid crisp" transform="translate(0,184.75)" d="M80,0h470" style="stroke: rgb(211, 211, 211); stroke-opacity: 1; stroke-width: 1px;"/></g></g><g class="zerolinelayer"/><g class="layer-between"><g class="shapelayer"/><g class="imagelayer"/></g><path class="xlines-below"/><path class="ylines-below"/><g class="overlines-below"/><g class="xaxislayer-below"/><g class="yaxislayer-below"/><g class="overaxes-below"/><g class="overplot"><g class="xy" transform="translate(80,100)" clip-path="url(#clipcaf46dxyplot)"><g class="scatterlayer mlayer"><g class="trace scatter tracefa005f" style="stroke-miterlimit: 2; opacity: 1;"><g class="fills"/><g class="errorbars"/><g class="lines"/><g class="points"><path class="point plotly-customdata" transform="translate(278.25,523.78)" d="M7.5,0A7.5,7.5 0 1,1 0,-7.5A7.5,7.5 0 0,1 7.5,0Z" style="opacity: 1; stroke-width: 0px; fill: rgb(230, 159, 0); fill-opacity: 1;"/><path class="point plotly-customdata" transform="translate(100.84,414.61)" d="M7.5,0A7.5,7.5 0 1,1 0,-7.5A7.5,7.5 0 0,1 7.5,0Z" style="opacity: 1; stroke-width: 0px; fill: rgb(230, 159, 0); fill-opacity: 1;"/><path class="point plotly-customdata" transform="translate(32.88,40.38)" d="M7.5,0A7.5,7.5 0 1,1 0,-7.5A7.5,7.5 0 0,1 7.5,0Z" style="opacity: 1; stroke-width: 0px; fill: rgb(230, 159, 0); fill-opacity: 1;"/><path class="point plotly-customdata" transform="translate(208.52,373.73)" d="M7.5,0A7.5,7.5 0 1,1 0,-7.5A7.5,7.5 0 0,1 7.5,0Z" style="opacity: 1; stroke-width: 0px; fill: rgb(230, 159, 0); fill-opacity: 1;"/><path class="point plotly-customdata" transform="translate(437.12,304.27)" d="M7.5,0A7.5,7.5 0 1,1 0,-7.5A7.5,7.5 0 0,1 7.5,0Z" style="opacity: 1; stroke-width: 0px; fill: rgb(230, 159, 0); fill-opacity: 1;"/></g><g class="text"><g class="textpoint" transform="translate(0,-13.625)"><text x="278.25" y="523.78" text-anchor="middle" style="font-family: Arial; font-size: 13px; fill: rgb(127, 127, 127); fill-opacity: 1; white-space: pre;"><tspan style="font-weight:bold">4.45</tspan></text></g><g class="textpoint" transform="translate(0,-13.625)"><text x="100.84" y="414.61" text-anchor="middle" style="font-family: Arial; font-size: 13px; fill: rgb(127, 127, 127); fill-opacity: 1; white-space: pre;"><tspan style="font-weight:bold">5.08</tspan></text></g><g class="textpoint" transform="translate(0,-13.625)"><text x="32.88" y="40.38" text-anchor="middle" style="font-family: Arial; font-size: 13px; fill: rgb(127, 127, 127); fill-opacity: 1; white-space: pre;"><tspan style="font-weight:bold">7.26</tspan></text></g><g class="textpoint" transform="translate(0,-13.625)"><text x="208.52" y="373.73" text-anchor="middle" style="font-family: Arial; font-size: 13px; fill: rgb(127, 127, 127); fill-opacity: 1; white-space: pre;"><tspan style="font-weight:bold">5.32</tspan></text></g><g class="textpoint" transform="translate(0,-13.625)"><text x="437.12" y="304.27" text-anchor="middle" style="font-family: Arial; font-size: 13px; fill: rgb(127, 127, 127); fill-opacity: 1; white-space: pre;"><tspan style="font-weight:bold">5.72</tspan></text></g></g></g><g class="trace scatter tracecf2f30" style="stroke-miterlimit: 2; opacity: 1;"><g class="fills"/><g class="errorbars"/><g class="lines"/><g class="points"><path class="point plotly-customdata" transform="translate(167.92,228.84)" d="M7.5,0A7.5,7.5 0 1,1 0,-7.5A7.5,7.5 0 0,1 7.5,0Z" style="opacity: 1; stroke-width: 0px; fill: rgb(86, 180, 233); fill-opacity: 1;"/><path class="point plotly-customdata" transform="translate(154.68,553.29)" d="M7.5,0A7.5,7.5 0 1,1 0,-7.5A7.5,7.5 0 0,1 7.5,0Z" style="opacity: 1; stroke-width: 0px; fill: rgb(86, 180, 233); fill-opacity: 1;"/><path class="point plotly-customdata" transform="translate(71.71,211.63)" d="M7.5,0A7.5,7.5 0 1,1 0,-7.5A7.5,7.5 0 0,1 7.5,0Z" style="opacity: 1; stroke-width: 0px; fill: rgb(86, 180, 233); fill-opacity: 1;"/><path class="point plotly-customdata" transform="translate(69.06,579.63)" d="M7.5,0A7.5,7.5 0 1,1 0,-7.5A7.5,7.5 0 0,1 7.5,0Z" style="opacity: 1; stroke-width: 0px; fill: rgb(86, 180, 233); fill-opacity: 1;"/><path class="point plotly-customdata" transform="translate(35.52,363.32)" d="M7.5,0A7.5,7.5 0 1,1 0,-7.5A7.5,7.5 0 0,1 7.5,0Z" style="opacity: 1; stroke-width: 0px; fill: rgb(86, 180, 233); fill-opacity: 1;"/></g><g class="text"><g class="textpoint" transform="translate(0,-13.625)"><text x="167.92" y="228.84" text-anchor="middle" style="font-family: Arial; font-size: 13px; fill: rgb(127, 127, 127); fill-opacity: 1; white-space: pre;"><tspan style="font-weight:bold">6.16</tspan></text></g><g class="textpoint" transform="translate(0,-13.625)"><text x="154.68" y="553.29" text-anchor="middle" style="font-family: Arial; font-size: 13px; fill: rgb(127, 127, 127); fill-opacity: 1; white-space: pre;"><tspan style="font-weight:bold">4.28</tspan></text></g><g class="textpoint" transform="translate(0,-13.625)"><text x="71.71" y="211.63" text-anchor="middle" style="font-family: Arial; font-size: 13px; fill: rgb(127, 127, 127); fill-opacity: 1; white-space: pre;"><tspan style="font-weight:bold">6.26</tspan></text></g><g class="textpoint" transform="translate(0,-13.625)"><text x="69.06" y="579.63" text-anchor="middle" style="font-family: Arial; font-size: 13px; fill: rgb(127, 127, 127); fill-opacity: 1; white-space: pre;"><tspan style="font-weight:bold">4.12</tspan></text></g><g class="textpoint" transform="translate(0,-13.625)"><text x="35.52" y="363.32" text-anchor="middle" style="font-family: Arial; font-size: 13px; fill: rgb(127, 127, 127); fill-opacity: 1; white-space: pre;"><tspan style="font-weight:bold">5.38</tspan></text></g></g></g></g></g></g><path class="xlines-above crisp" d="M0,0" style="fill: none;"/><path class="ylines-above crisp" d="M0,0" style="fill: none;"/><g class="overlines-above"/><g class="xaxislayer-above"><g class="xtick"><text text-anchor="middle" x="0" y="734" transform="translate(157.01,0)" style="font-family: Arial; font-size: 13px; fill: rgb(127, 127, 127); fill-opacity: 1; white-space: pre; opacity: 1;">100</text></g><g class="xtick"><text text-anchor="middle" x="0" y="734" style="font-family: Arial; font-size: 13px; fill: rgb(127, 127, 127); fill-opacity: 1; white-space: pre; opacity: 1;" transform="translate(245.27,0)">200</text></g><g class="xtick"><text text-anchor="middle" x="0" y="734" style="font-family: Arial; font-size: 13px; fill: rgb(127, 127, 127); fill-opacity: 1; white-space: pre; opacity: 1;" transform="translate(333.53999999999996,0)">300</text></g><g class="xtick"><text text-anchor="middle" x="0" y="734" style="font-family: Arial; font-size: 13px; fill: rgb(127, 127, 127); fill-opacity: 1; white-space: pre; opacity: 1;" transform="translate(421.8,0)">400</text></g><g class="xtick"><text text-anchor="middle" x="0" y="734" style="font-family: Arial; font-size: 13px; fill: rgb(127, 127, 127); fill-opacity: 1; white-space: pre; opacity: 1;" transform="translate(510.06,0)">500</text></g></g><g class="yaxislayer-above"><g class="ytick"><text text-anchor="end" x="79" y="4.55" transform="translate(0,700.91)" style="font-family: Arial; font-size: 13px; fill: rgb(127, 127, 127); fill-opacity: 1; white-space: pre; opacity: 1;">4</text></g><g class="ytick"><text text-anchor="end" x="79" y="4.55" style="font-family: Arial; font-size: 13px; fill: rgb(127, 127, 127); fill-opacity: 1; white-space: pre; opacity: 1;" transform="translate(0,614.88)">4.5</text></g><g class="ytick"><text text-anchor="end" x="79" y="4.55" style="font-family: Arial; font-size: 13px; fill: rgb(127, 127, 127); fill-opacity: 1; white-space: pre; opacity: 1;" transform="translate(0,528.86)">5</text></g><g class="ytick"><text text-anchor="end" x="79" y="4.55" style="font-family: Arial; font-size: 13px; fill: rgb(127, 127, 127); fill-opacity: 1; white-space: pre; opacity: 1;" transform="translate(0,442.83)">5.5</text></g><g class="ytick"><text text-anchor="end" x="79" y="4.55" style="font-family: Arial; font-size: 13px; fill: rgb(127, 127, 127); fill-opacity: 1; white-space: pre; opacity: 1;" transform="translate(0,356.8)">6</text></g><g class="ytick"><text text-anchor="end" x="79" y="4.55" style="font-family: Arial; font-size: 13px; fill: rgb(127, 127, 127); fill-opacity: 1; white-space: pre; opacity: 1;" transform="translate(0,270.78)">6.5</text></g><g class="ytick"><text text-anchor="end" x="79" y="4.55" style="font-family: Arial; font-size: 13px; fill: rgb(127, 127, 127); fill-opacity: 1; white-space: pre; opacity: 1;" transform="translate(0,184.75)">7</text></g></g><g class="overaxes-above"/></g></g><g class="polarlayer"/><g class="smithlayer"/><g class="ternarylayer"/><g class="geolayer"/><g class="funnelarealayer"/><g class="pielayer"/><g class="iciclelayer"/><g class="treemaplayer"/><g class="sunburstlayer"/><g class="glimages"/><defs id="topdefs-caf46d"><g class="clips"/><clipPath id="legendcaf46d"><rect width="221" height="30" x="0" y="0"/></clipPath></defs><g class="layer-above"><g class="imagelayer"/><g class="shapelayer"/></g><g class="infolayer"><g class="legend" pointer-events="all" transform="translate(329,37.99999999999994)"><rect class="bg" shape-rendering="crispEdges" width="221" height="30" x="0" y="0" style="stroke: rgb(68, 68, 68); stroke-opacity: 1; fill: rgb(255, 255, 255); fill-opacity: 1; stroke-width: 0px;"/><g class="scrollbox" transform="" clip-path="url(#legendcaf46d)"><g class="groups"><g class="traces" transform="translate(0,14.950000000000001)" style="opacity: 1;"><text class="legendtext" text-anchor="start" x="40" y="5.07" style="font-family: Arial; font-size: 13px; fill: rgb(127, 127, 127); fill-opacity: 1; white-space: pre;">Chosen: il</text><g class="layers" style="opacity: 1;"><g class="legendfill"/><g class="legendlines"/><g class="legendsymbols"><g class="legendpoints"><path class="scatterpts" transform="translate(20,0)" d="M7.5,0A7.5,7.5 0 1,1 0,-7.5A7.5,7.5 0 0,1 7.5,0Z" style="opacity: 1; stroke-width: 0px; fill: rgb(230, 159, 0); fill-opacity: 1;"/></g></g></g><rect class="legendtoggle" x="0" y="-9.950000000000001" width="100.421875" height="19.900000000000002" style="fill: rgb(0, 0, 0); fill-opacity: 0;"/></g><g class="traces" transform="translate(102.921875,14.950000000000001)" style="opacity: 1;"><text class="legendtext" text-anchor="start" x="40" y="5.07" style="font-family: Arial; font-size: 13px; fill: rgb(127, 127, 127); fill-opacity: 1; white-space: pre;">Chosen: elle</text><g class="layers" style="opacity: 1;"><g class="legendfill"/><g class="legendlines"/><g class="legendsymbols"><g class="legendpoints"><path class="scatterpts" transform="translate(20,0)" d="M7.5,0A7.5,7.5 0 1,1 0,-7.5A7.5,7.5 0 0,1 7.5,0Z" style="opacity: 1; stroke-width: 0px; fill: rgb(86, 180, 233); fill-opacity: 1;"/></g></g></g><rect class="legendtoggle" x="0" y="-9.950000000000001" width="114.78125" height="19.900000000000002" style="fill: rgb(0, 0, 0); fill-opacity: 0;"/></g></g></g><rect class="scrollbar" rx="20" ry="3" width="0" height="0" x="0" y="0" style="fill: rgb(128, 139, 164); fill-opacity: 1;"/></g><g class="g-gtitle"><text class="gtitle" x="554.4" y="20" text-anchor="end" dy="0.7em" style="opacity: 1; font-family: Arial; font-size: 18px; fill: rgb(127, 127, 127); fill-opacity: 1; white-space: pre;">Token selection surprisal "il" and "elle", threshold 4.0</text></g><g class="g-xtitle"><text class="xtitle" x="315" y="762.7" text-anchor="middle" style="opacity: 1; font-family: Arial; font-size: 16px; fill: rgb(127, 127, 127); fill-opacity: 1; white-space: pre;">Step</text></g><g class="g-ytitle"><text class="ytitle" transform="rotate(-90,40.821875,410)" x="40.821875" y="410" text-anchor="middle" style="opacity: 1; font-family: Arial; font-size: 16px; fill: rgb(127, 127, 127); fill-opacity: 1; white-space: pre;">Surprisal</text></g><g class="annotation" data-index="0" style="opacity: 1;"><g class="annotation-text-g" transform="rotate(0,315,89.5)"><g class="cursor-pointer" transform="translate(263,79)"><rect class="bg" x="0.5" y="0.5" width="103" height="20" style="stroke-width: 1px; stroke: rgb(0, 0, 0); stroke-opacity: 0; fill: rgb(0, 0, 0); fill-opacity: 0;"/><text class="annotation-text" text-anchor="middle" x="51.796875" y="16" style="font-family: Arial; font-size: 16px; fill: rgb(127, 127, 127); fill-opacity: 1; white-space: pre;"><tspan style="font-weight:bold">Llama-3.2-3B</tspan></text></g></g></g></g></svg>